<?xml version="1.0" encoding="utf-8"?>
<!-- Generator: Adobe Illustrator 26.0.1, SVG Export Plug-In . SVG Version: 6.00 Build 0)  -->
<svg version="1.1" id="Ebene_1" xmlns="http://www.w3.org/2000/svg" xmlns:xlink="http://www.w3.org/1999/xlink" x="0px" y="0px"
	 viewBox="0 0 155 75"  xml:space="preserve">
<style type="text/css">
	.st1{clip-path:url(#SVGID_00000009549073251882981570000007212721705776849305_);}
	.st2{fill:#003F73;}
</style>
<g>
	<defs>
		<rect id="SVGID_1_" width="155" height="75"/>
	</defs>
	<clipPath id="SVGID_00000015357003388791710330000012959872287066334890_">
		<use xlink:href="#SVGID_1_"  style="overflow:visible;"/>
	</clipPath>
	<g style="clip-path:url(#SVGID_00000015357003388791710330000012959872287066334890_);">
		<g transform="matrix(1 0 0 1 -329.2746 -587.5002)">
			<path class="st2" d="M484.3,595.4v-5.1c-0.3-1.9-2.1-1.1-3.2-1.5l-5.1-0.2c-6.6,0-12.9,6.2-12.9,13.1c0,9.1,7.1,8.6,7.1,16
				c0,4.3-5.9,13.5-12,13.5h-1.8c-0.3,0-1.1,0.2-1.7,0.3l-4,0.1c-6.1-0.6-6.8-3.6-8.7-3.6c-0.3,0-0.4,0.1-0.6,0.2
				c-0.4,3-1.2,8.7-1.2,9c0,1.6,1.7,2.1,2.9,2.1h2.3l6.7,0.5h7.5c2.5,0,5.6-1,8-1.8c1.3-0.4,1.7-0.9,3.7-1.8
				c1.1-0.5,8.1-5.1,9.3-10.4c0.5-2.3,0-6.1,0-6.1c0-0.3-0.6-1.4-0.9-2.1c-1.1-2.8-4.2-5.6-6.7-7.8c-1.9-1.7-2.9-3-2.9-4.8
				c0-3.5,3.6-8,7.6-8h4.3c0.3,0,0.9,0.3,1.2,0.3C484.1,597.3,484.3,596.5,484.3,595.4z M459.7,590.7c0.1-0.6,0.7-1.3,0.7-1.6
				c0-0.8-1-1-1.6-1c-0.3,0-3-0.1-3.2-0.1s-1.3,0.1-2.9,0.2s-4.3-0.2-4.3,2.4c0,2.5,1.2,4.1,1.2,4.9c0,0.3,0.3,2.8,0.3,3.7
				c0.1,1.8-0.3,3.3-0.3,3.6c0,0.3,0.2,2.6,0.2,2.8c0,0.6,0.1,1.4-0.4,1.8c-0.7-0.4-2-0.9-2.3-0.9h-1.6c-4.8,0-6.6,5.9-7.1,9.2
				c-0.2,1.3-0.1,2-0.1,2.3c0,4.8,1.2,8.3,7.2,8.3c0.8,0,4.7-2.8,4.7-2.8c0.3,0,0.2,0.1,0.3,0.2c-0.1,0.6-0.2,1.1-0.2,1.4
				s0.1,0.5,0.4,0.7c1.3,0,1.4,0.1,1.7,0.1c0.2,0,6.3-0.5,6.3-1.4V605l0.4-9.5C459.3,593.9,459.3,592.2,459.7,590.7z M443.6,598.7
				c0.2-2.8,0.4-5.9,0.4-6.1c0-2-1.8-2.6-3.4-2.6c-2.2,0-4.6,2.6-5.1,2.6c-0.6,0-0.7-0.4-0.7-1.1c0-0.3,0.4-1.8,0.4-2.1
				c0-0.2-0.6-0.9-1-0.9c-0.2,0-6.3,4.4-6.3,4.8c0,0.3,0.7,2.6,0.7,2.9V616c-0.2,0.5,0.9,1.1,1.2,1.2c1.9,0.1,3.7,0.3,4,0.3
				c1.2,0,1.6-0.4,1.9-2.1l0.5-12.5c0.2-0.4,0.9-4.6,3.2-4.6c1.9,0,1.4,2.8,3,2.8C443.7,601.2,443.6,599.1,443.6,598.7z M428,619.9
				c-2.1-5.5-4-11.2-5.9-16.6c-1.6-4.5-2-9.5-4.8-13.9c-0.4-0.6-0.7-1.8-1.3-1.8c-1,0-8.8,11.1-10.7,13.6c-2.2,2.9-8.4,11-8.4,11.6
				c0,0.3,0.2,0.5,0.4,0.6c2.1-0.2,4-0.3,4.3-0.3c0.3,0,3.9,0.3,4.2,0.3c1.7,0,4.3-5.2,5-5.7l2.7-0.1c0.5,0,0.9-0.1,1.2,0.3
				c3.3,9.8,5.6,19.7,8.5,29.5c0.1,0.5,1.4,0.9,1.9,0.9h10c0.5,0,0.8-0.6,0.8-1.1C436,636.4,428.7,621.9,428,619.9z M417.5,603.1
				c-0.3,0-0.5,0.1-3.6,0.1c0,0-0.1,0-0.1-0.3c0-0.3,1.3-2.4,2.2-3.7C417,600.2,417,601.6,417.5,603.1z M405.3,597.4v-7.9
				c0-0.3-0.7-0.9-0.9-1c-28.2,0.2-22.7,0.5-34.1,0.7c-1.1,0-5.4-0.1-5.4,0.6c0,0.3,0.7,2.6,0.7,2.9s0.1,2.1,0.1,4.3
				c0.1,0.2,0.8,0.5,1.3,0.5c2.2-0.2,3.3-1.1,3.6-1.1l6.1,0.1c0.7,0.3,2.1-0.4,2,0.8c-0.5,43.5-0.4,32.2-0.4,40.3
				c0,0.6,1.1,0.9,1.5,0.9c2.4-0.1,2.5,0,2.6,0c0.9-0.4,2.2-0.1,3.1-0.7l-0.7-16.1v-12.5c0.1-0.1,0-5.6,0.2-7.9c2.3,0,2.6,0,4.4,0
				c0.4,0.6,0.4,1.5,0.4,2.2v19.5l-0.5,5.9v8.4c0.4,0.8,0.9,0.2,1.3,0.7c0.1,0,0.2-0.1,3.1,0c0.3-0.1,0.7-0.2,1-0.6
				c-0.2-17.2-0.3-17.4-0.3-17.5c-0.1-2.1-0.2-3.1-0.2-4v-13.5c-0.9-1.6,5.2-1.7,6.1-1.7c0.3,0,1.6,0.2,1.9,0.2
				C404.7,601.1,405.2,599.3,405.3,597.4z M368.9,600c-1.6-0.5-4-0.6-4.3-0.6c-5.8,0-10.7,3.8-12,11.6c-0.3,1.5-0.7,3-0.9,5
				c-0.1,1.8,0,4.5,0,4.5c0,3.3,4.4,16.8,11.1,16.8h2.3c5.5,0,8.4-4.6,9.1-10.7c0.2-2.1,1.4-5,1.4-7.2c0-1.1-2.5-1.1-3.2-1.1
				c-0.3,0-1.9,0.1-2.8,0.4c-0.1,0.4,0,11.2-4.7,11.2c-4.4,0-6.2-8-6.2-10v-5.1c0-1.3,2-8.4,5.4-8.4c1.2,0,1.9,1.4,1.9,2.5
				c0,0.9-0.9,1-1.4,1c-0.3,0-1.6-0.2-1.9-0.2c-0.5,0-1.1,0.5-1.2,0.9v4.1c0,0.5,0.7,0.8,0.9,0.9c0,0,4.4-0.4,7.1-0.3
				c2.4,0.1,6.1,0.7,6.1,0.7c0.5,0,0.8-0.5,0.8-1.2C376.5,612.1,375.1,602,368.9,600z M346,618.5c0-1.2,14.8-28.1,14.8-28.1
				c0-0.5-0.2-1.3-1.1-1.5l-8.9-0.2c-0.6,0.1-1.7-0.3-2.1,0.6c-3.6,8.5-6.8,18-10.2,26.2c-0.1-0.1-0.1-0.2-0.2-0.3l-0.7-22.8
				c0-0.3,0.3-2.7,0.3-3c0-0.3,0-0.5-0.1-0.8h-8.3c-0.1-0.1-0.3,0.2-0.3,0.4c0,0.3,0.4,1.7,0.4,2.6c0.1,1.6,0.1,2,0,4.3l2,35.6v6.4
				c0,0,0.1,2,0.9,2c0.3,0,2.8-0.2,4.9-0.3c0.5,0,3,0.6,3-0.8v-2.4c0-0.3,0.4-3.1,0.4-3.4c0-0.8,0.9-6.7,1.4-7.7
				c3.2,4.1,5.2,8.8,7.5,13.2c0.1,0.2,0.6,0.2,0.8,0.2l5-0.7c0.4,0,1.6-0.3,1.6-0.8c0-0.4-6.8-9.7-9.7-15.2
				C347,621.3,346,619.6,346,618.5z M396.7,630.6c0,4.8,4.5,9.6,10.4,9.6c2.1,0,4.9-0.6,6.5-2.4c0.9-1,2.5-1.7,2.5-2.8
				c0-0.9-4-5.3-4.8-5.3c-1.4,0-1,3.1-4.1,3.1c-1.8,0-3.3-1.6-3.3-3.7c0-0.8,1.2-6.7,4-6.7c3.6,0,2.1,3.8,3.4,3.8c0,0,3.5-3,3.5-3.6
				c0-1.9-3-5-6.2-5.6c-0.8-0.2-1.3-0.2-2.2-0.1c-2.3,0.2-3.6,1.2-5.4,2.3C397.9,621.3,396.7,627.3,396.7,630.6z"/>
		</g>
		<g transform="matrix(1 0 0 1 68.5171 60.4846)">
			<path class="st2" d="M-38.6,14.2h1.8V8l0.9-1.5l3.3,7.7h2l-4-9.2l3.9-6.8h-2l-3,5.7c-0.3,0.6-0.6,1.3-1,1.9h0v-7.6h-1.8
				L-38.6,14.2L-38.6,14.2z M-22.5,2.7h-1.8v7.6c0,0.4,0,0.7-0.1,1c-0.1,0.5-0.6,1.5-1.6,1.5c-1.3,0-1.5-1.3-1.5-3.1v-7h-1.8V10
				c0,2.8,0.8,4.4,2.8,4.4c1.2,0,2.1-0.8,2.5-1.4h0l0.1,1.2h1.6c0-0.9-0.1-1.8-0.1-3.1C-22.5,11.1-22.5,2.7-22.5,2.7z M-19.8,14.2
				h1.8V7c0-0.4,0-0.7,0.1-1c0.2-1.2,1-1.9,1.7-1.9c1.3,0,1.6,1.4,1.6,2.7v7.4h1.8V6.5c0-2.8-1.2-4-2.8-4c-1.2,0-2.1,0.6-2.6,1.6h0
				l-0.1-1.4h-1.6c0,0.9,0.1,1.6,0.1,3V14.2z M-10.8,13.7c0.5,0.4,1.4,0.7,2.3,0.7c1.9,0,3.4-1.1,3.4-3.4c0-1.6-1-2.6-2.4-3.5
				c-1.1-0.8-1.4-1.2-1.4-2C-8.9,4.7-8.4,4-7.4,4c0.6,0,1.1,0.2,1.5,0.5l0.5-1.4c-0.5-0.3-1.2-0.6-2.1-0.6c-1.8,0-3.2,1.3-3.2,3.2
				c0,1.3,0.8,2.3,2.3,3.3c1.2,0.8,1.5,1.4,1.5,2.3c0,1-0.6,1.7-1.7,1.7c-0.7,0-1.4-0.3-1.8-0.6C-10.4,12.3-10.8,13.7-10.8,13.7z
				 M-2.7,0.8v1.9h-1.4v1.4h1.4v6.6c0,1.6,0.2,2.4,0.7,2.9c0.5,0.5,1.1,0.7,1.8,0.7c0.6,0,1-0.1,1.4-0.2l-0.1-1.4
				c-0.2,0-0.5,0.1-0.7,0.1c-0.7,0-1.2-0.4-1.2-1.9V4.1h2.2V2.7h-2.2V0.1L-2.7,0.8z M13.8,2.7H12v7.6c0,0.4,0,0.7-0.1,1
				c-0.1,0.5-0.6,1.5-1.6,1.5c-1.3,0-1.5-1.3-1.5-3.1v-7H6.9V10c0,2.8,0.8,4.4,2.8,4.4c1.2,0,2.1-0.8,2.5-1.4h0l0.1,1.2h1.6
				c0-0.9-0.1-1.8-0.1-3.1C13.8,11.1,13.8,2.7,13.8,2.7z M16.5,14.2h1.8V7c0-0.4,0-0.7,0.1-1c0.2-1.2,1-1.9,1.7-1.9
				c1.3,0,1.6,1.4,1.6,2.7v7.4h1.8V6.5c0-2.8-1.2-4-2.8-4c-1.2,0-2.1,0.6-2.6,1.6h0L18,2.7h-1.6c0,0.9,0.1,1.6,0.1,3
				C16.5,5.7,16.5,14.2,16.5,14.2z M31.3-2.2v6.1h0c-0.5-1-1.3-1.4-2.1-1.4c-1.8,0-3.5,1.9-3.5,6c0,3.8,1.4,5.9,3.3,5.9
				c1.2,0,2-0.8,2.4-1.6h0.1l0.1,1.4h1.6c0-0.7-0.1-2-0.1-2.8V-2.2C33.1-2.2,31.3-2.2,31.3-2.2z M31.3,10.2c0,0.3,0,0.5-0.1,0.8
				c-0.4,1.7-1.2,2-1.8,2c-1.3,0-1.9-1.9-1.9-4.4c0-2.3,0.5-4.4,2-4.4c0.9,0,1.6,1,1.7,2.2c0,0.3,0,0.5,0,0.8
				C31.3,7.1,31.3,10.2,31.3,10.2z M39.8,14.2h1.8V8l0.9-1.5l3.3,7.7h2l-4-9.2l3.9-6.8h-2l-3,5.7c-0.3,0.6-0.6,1.3-1,1.9h0v-7.6
				h-1.8L39.8,14.2L39.8,14.2z M55.5,6.7c0-2.6-1-4.1-3.3-4.1c-1.1,0-2.2,0.4-2.7,0.8l0.4,1.3C50.4,4.2,51.1,4,51.8,4
				c1.4,0,1.8,1.1,1.8,2.6V7c-2.6,0-4.9,1.3-4.9,4.2c0,2,1.2,3.3,2.7,3.3c1,0,1.8-0.5,2.3-1.4h0.1l0.1,1.2h1.7
				c-0.1-0.7-0.1-1.7-0.1-2.6C55.5,11.6,55.5,6.7,55.5,6.7z M53.7,10.6c0,0.2,0,0.4,0,0.6c-0.2,1.1-0.9,1.7-1.7,1.7
				c-0.6,0-1.4-0.5-1.4-2c0-2.5,2.2-2.7,3.2-2.7V10.6z M58.1,14.2H60V7.9c0-0.4,0-0.7,0.1-1c0.2-1.3,1-2.4,2.2-2.4
				c0.1,0,0.3,0,0.4,0V2.6c-0.1,0-0.2,0-0.4,0c-1.1,0-2,0.9-2.4,2h0l-0.1-1.8H58c0,0.9,0.1,2,0.1,3C58.1,5.7,58.1,14.2,58.1,14.2z
				 M65.1,0.8v1.9h-1.4v1.4h1.4v6.6c0,1.6,0.2,2.4,0.7,2.9c0.4,0.5,1.1,0.7,1.8,0.7c0.6,0,1-0.1,1.4-0.2l-0.1-1.4
				c-0.2,0-0.5,0.1-0.7,0.1c-0.7,0-1.2-0.4-1.2-1.9V4.1h2.2V2.7H67V0.1L65.1,0.8z M77.3,8.6c0-0.3,0-0.6,0-1c0-2.6-0.9-5.1-3.3-5.1
				c-2.3,0-3.9,2.3-3.9,6c0,3.5,1.4,5.8,4.2,5.8c0.9,0,1.9-0.2,2.5-0.5l-0.3-1.4c-0.4,0.3-1.1,0.5-1.9,0.5c-1.3,0-2.7-0.8-2.7-4.3
				H77.3z M72,7.3C72.1,5.7,72.7,4,73.9,4c0.9,0,1.8,1,1.7,3.3H72z M79.4,14.2h1.8V7c0-0.4,0-0.7,0.1-1c0.2-1.2,1-1.9,1.7-1.9
				c1.3,0,1.6,1.4,1.6,2.7v7.4h1.8V6.5c0-2.8-1.2-4-2.8-4c-1.2,0-2.1,0.6-2.6,1.6h0l-0.1-1.4h-1.6c0,0.9,0.1,1.6,0.1,3
				C79.4,5.7,79.4,14.2,79.4,14.2z"/>
		</g>
	</g>
</g>
</svg>

